<?xml version="1.0" standalone="no"?><!DOCTYPE svg PUBLIC "-//W3C//DTD SVG 1.1//EN" "http://www.w3.org/Graphics/SVG/1.1/DTD/svg11.dtd"><svg class="icon" width="200px" height="200.00px" viewBox="0 0 1024 1024" version="1.1" xmlns="http://www.w3.org/2000/svg"><path fill="#ff5777" d="M220.8 479.8H351c71.6 0 130.2-58.6 130.2-130.2V219.4c0-71.6-58.6-130.2-130.2-130.2H220.8c-71.6 0-130.2 58.6-130.2 130.2v130.2c0 71.6 58.6 130.2 130.2 130.2zM676.6 479.8h130.2c71.6 0 130.2-58.6 130.2-130.2V219.4c0-71.6-58.6-130.2-130.2-130.2H676.6c-71.6 0-130.2 58.6-130.2 130.2v130.2c-0.1 71.6 58.5 130.2 130.2 130.2zM352 544.9H221.8c-71.6 0-130.2 58.6-130.2 130.2v130.2c0 71.6 58.6 130.2 130.2 130.2H352c71.6 0 130.2-58.6 130.2-130.2V675.1c0-71.6-58.6-130.2-130.2-130.2zM807.8 544.9H677.6c-71.6 0-130.2 58.6-130.2 130.2v130.2c0 71.6 58.6 130.2 130.2 130.2h130.2c71.6 0 130.2-58.6 130.2-130.2V675.1c0-71.6-58.6-130.2-130.2-130.2z" /></svg>