<?xml version="1.0" standalone="no"?><!DOCTYPE svg PUBLIC "-//W3C//DTD SVG 1.1//EN" "http://www.w3.org/Graphics/SVG/1.1/DTD/svg11.dtd"><svg class="icon" width="200px" height="200.00px" viewBox="0 0 1024 1024" version="1.1" xmlns="http://www.w3.org/2000/svg"><path fill="#ff5777" d="M939.175079 484.343103 557.721321 107.755166c-1.927909-2.289136-5.950526-6.025227-11.568477-9.730619-10.06217-6.627954-20.757766-10.001795-31.783891-10.001795-11.855002 0-22.820752 3.40454-32.597419 10.092869-6.477528 4.458545-9.942443 8.465812-11.4334 10.454096L89.606831 484.373803c-6.522554 6.417153-10.107195 14.973016-10.107195 24.071232 0 9.06854 3.584642 17.624403 10.107195 24.041556 11.990079 11.900028 29.494755 8.495488 46.169529-7.92346l25.592888-25.306362 41.892109-40.08495 0 389.497968c0 48.143487 39.617299 87.308485 88.317465 87.308485l148.993382 0L440.572204 687.670975c0-19.160385 15.84692-34.736129 35.30918-34.736129l77.020164 0c19.47761 0 35.293831 15.575744 35.293831 34.736129l0 248.307296 149.008732 0c48.685839 0 88.332814-39.164998 88.332814-87.308485L825.536926 461.189777l67.484997 66.355267c11.508102 7.531534 21.842471 11.538801 30.217209 11.538801 6.236028 0 11.44875-2.169409 15.936971-6.598278 6.507204-6.417153 10.092869-14.94334 10.122545-24.041556C949.297624 499.346819 945.712983 490.789932 939.175079 484.343103z" /></svg>