<?xml version="1.0" standalone="no"?><!DOCTYPE svg PUBLIC "-//W3C//DTD SVG 1.1//EN" "http://www.w3.org/Graphics/SVG/1.1/DTD/svg11.dtd"><svg class="icon" width="200px" height="200.00px" viewBox="0 0 1024 1024" version="1.1" xmlns="http://www.w3.org/2000/svg"><path fill="#666666" d="M914.563542 207.269647c-15.143908-17.145495-36.001959-26.574239-58.688657-26.574239L247.978814 180.695409l-2.332115-13.46057c-5.294586-43.370787-43.400462-77.285201-86.785575-77.285201l-38.540781 0c-15.869433 0-28.77844 12.910031-28.77844 28.77844s12.910031 28.77844 28.77844 28.77844l38.540781 0c14.302751 0 27.965935 12.851703 29.851888 28.053939l29.184693 168.726819 51.305503 361.272114c5.250584 43.313481 42.921555 77.226872 85.784782 77.226872l491.37117 0c15.869433 0 28.77844-12.910031 28.77844-28.77844 0-15.839757-12.910031-28.749788-28.77844-28.749788l-491.37117 0c-13.794168 0-26.936489-12.44545-28.705785-27.183106l-4.253884-29.958312 481.047034-36.592406c42.935881 0 80.534198-33.217543 85.697801-75.601862l47.694255-272.730545C939.919023 254.586302 931.941328 226.88131 914.563542 207.269647zM362.821399 816.004829c-32.536021 0-59.022255 26.487258-59.022255 59.037605 0 32.521694 26.487258 59.007929 59.022255 59.007929 32.536021 0 59.022255-26.487258 59.022255-59.007929C421.843654 842.491063 395.356396 816.004829 362.821399 816.004829zM786.364765 816.004829c-32.550347 0-59.036581 26.487258-59.036581 59.037605 0 32.521694 26.487258 59.007929 59.036581 59.007929 32.521694 0 59.007929-26.487258 59.007929-59.007929C845.372693 842.491063 818.886459 816.004829 786.364765 816.004829z" /></svg>